{"title":"Sadda Haq 2013 Punjabi  hindi Movie dvdscr rip  jattonhunt","uid":8496026,"size":257111004,"categoryP":"video","categoryS":"movies","magnet":"?xt=urn:btih:04ac19412f99ed672dea02add7dafa78714cc0bf&amp;dn=Sadda+Haq+2013+Punjabi++hindi+Movie+dvdscr+rip++jattonhunt&amp;tr=udp%3A%2F%2Ftracker.openbittorrent.com%3A80&amp;tr=udp%3A%2F%2Fopen.demonii.com%3A1337&amp;tr=udp%3A%2F%2Ftracker.coppersurfer.tk%3A6969&amp;tr=udp%3A%2F%2Fexodus.desync.com%3A6969","seeders":1,"leechers":0,"uploader":"jattonhunt","files":1,"time":1369147937,"description":"Sadda Haq 2013 Punjabi  hindi Movie dvdscr rip  jattonhunt\nVideo\nID                             : 1\nFormat                         : AVC\nFormat/Info                    : Advanced Video Codec\nFormat profile                 : &lt;a class=&quot;__cf_email__&quot; href=&quot;/cdn-cgi/l/email-protection&quot; data-cfemail=&quot;94d9f5fdfad4d8a1baa5&quot;&gt;[email&amp;#160;protected]&lt;/a&gt;&lt;script cf-hash='f9e31' type=&quot;text/javascript&quot;&gt;\n/* &lt;![CDATA[ */!function(){try{var t=&quot;currentScript&quot;in document?document.currentScript:function(){for(var t=document.getElementsByTagName(&quot;script&quot;),e=t.length;e--;)if(t[e].getAttribute(&quot;cf-hash&quot;))return t[e]}();if(t&amp;&amp;t.previousSibling){var e,r,n,i,c=t.previousSibling,a=c.getAttribute(&quot;data-cfemail&quot;);if(a){for(e=&quot;&quot;,r=parseInt(a.substr(0,2),16),n=2;a.length-n;n+=2)i=parseInt(a.substr(n,2),16)^r,e+=String.fromCharCode(i);e=document.createTextNode(e),c.parentNode.replaceChild(e,c)}}}catch(u){}}();/* ]]&gt; */&lt;/script&gt;\nFormat settings, CABAC         : Yes\nFormat settings, ReFrames      : 1 frame\nCodec ID                       : V_MPEG4/ISO/AVC\nDuration                       : 2h 8mn\nBit rate                       : 197 Kbps\nWidth                          : 440 pixels\nHeight                         : 200 pixels\nDisplay aspect ratio           : 2.2:1\nFrame rate mode                : Constant\nFrame rate                     : 25.000 fps\nColor space                    : YUV\nChroma subsampling             : 4:2:0\nBit depth                      : 8 bits\nScan type                      : Progressive\nBits/(Pixel*Frame)             : 0.089\nStream size                    : 181 MiB (74%)\nTitle                          : Sadda Haq 2013 Punjabi  hindi Movie dvdscr rip  jattonhunt\nLanguage                       : Panjabi\nDefault                        : Yes\nForced                         : No\n\nAudio\nID                             : 2\nFormat                         : MPEG Audio\nFormat version                 : Version 1\nFormat profile                 : Layer 2\nCodec ID                       : A_MPEG/L2\nCodec ID/Hint                  : MP2\nDuration                       : 2h 8mn\nBit rate mode                  : Constant\nBit rate                       : 64.0 Kbps\nChannel(s)                     : 2 channels\nSampling rate                  : 44.1 KHz\nCompression mode               : Lossy\nStream size                    : 59.0 MiB (24%)\nTitle                          : Sadda Haq 2013 Punjabi  hindi Movie dvdscr rip  jattonhunt\nLanguage                       : Panjabi\nDefault                        : Yes\nForced                         : No\n\n","torrent":{"xt":"urn:btih:04ac19412f99ed672dea02add7dafa78714cc0bf","amp;dn":"Sadda+Haq+2013+Punjabi++hindi+Movie+dvdscr+rip++jattonhunt","amp;tr":["udp%3A%2F%2Ftracker.openbittorrent.com%3A80","udp%3A%2F%2Fopen.demonii.com%3A1337","udp%3A%2F%2Ftracker.coppersurfer.tk%3A6969","udp%3A%2F%2Fexodus.desync.com%3A6969"],"infoHash":"04ac19412f99ed672dea02add7dafa78714cc0bf","infoHashBuffer":{"type":"Buffer","data":[4,172,25,65,47,153,237,103,45,234,2,173,215,218,250,120,113,76,192,191]},"announce":[],"urlList":[]}}